HIERARCHY
ROOT Hips
{
	OFFSET 0.000000 0.000000 0.000000
	CHANNELS 6 Xposition Yposition Zposition Zrotation Yrotation Xrotation 
	JOINT LHipJoint
	{
		OFFSET 0.000000 0.000000 0.000000
		CHANNELS 3 Zrotation Yrotation Xrotation
		JOINT LeftUpLeg
		{
			OFFSET 1.363060 -1.794630 0.839290
			CHANNELS 3 Zrotation Yrotation Xrotation
			JOINT LeftLeg
			{
				OFFSET 2.448110 -6.726130 0.000000
				CHANNELS 3 Zrotation Yrotation Xrotation
				JOINT LeftFoot
				{
					OFFSET 2.562200 -7.039590 0.000000
					CHANNELS 3 Zrotation Yrotation Xrotation
					JOINT LeftToeBase
					{
						OFFSET 0.157640 -0.433110 2.322550
						CHANNELS 3 Zrotation Yrotation Xrotation
						End Site
						{
							OFFSET 0.000000 0.000000 0.000000
						}
					}
				}
			}
		}
	}
	JOINT RHipJoint
	{
		OFFSET 0.000000 0.000000 0.000000
		CHANNELS 3 Zrotation Yrotation Xrotation
		JOINT RightUpLeg
		{
			OFFSET -1.305520 -1.794630 0.839290
			CHANNELS 3 Zrotation Yrotation Xrotation
			JOINT RightLeg
			{
				OFFSET -2.542530 -6.985550 0.000000
				CHANNELS 3 Zrotation Yrotation Xrotation
				JOINT RightFoot
				{
					OFFSET -2.568260 -7.056230 0.000000
					CHANNELS 3 Zrotation Yrotation Xrotation
					JOINT RightToeBase
					{
						OFFSET -0.164730 -0.452590 2.363150
						CHANNELS 3 Zrotation Yrotation Xrotation
						End Site
						{
							OFFSET 0.000000 0.000000 0.000000
						}
					}
				}
			}
		}
	}
	JOINT LowerBack
	{
		OFFSET 0.000000 0.000000 0.000000
		CHANNELS 3 Zrotation Yrotation Xrotation
		JOINT Spine
		{
			OFFSET 0.028270 2.035590 -0.193380
			CHANNELS 3 Zrotation Yrotation Xrotation
			JOINT Spine1
			{
				OFFSET 0.056720 2.048850 -0.042750
				CHANNELS 3 Zrotation Yrotation Xrotation
				JOINT Neck
				{
					OFFSET 0.000000 0.000000 0.000000
					CHANNELS 3 Zrotation Yrotation Xrotation
					JOINT Neck1
					{
						OFFSET -0.054170 1.746240 0.172020
						CHANNELS 3 Zrotation Yrotation Xrotation
						JOINT Head
						{
							OFFSET 0.104070 1.761360 -0.123970
							CHANNELS 3 Zrotation Yrotation Xrotation
							End Site
							{
								OFFSET 0.000000 0.000000 0.000000
							}
						}
					}
				}
				JOINT LeftShoulder
				{
					OFFSET 0.000000 0.000000 0.000000
					CHANNELS 3 Zrotation Yrotation Xrotation
					JOINT LeftArm
					{
						OFFSET 3.362410 1.200890 -0.311210
						CHANNELS 3 Zrotation Yrotation Xrotation
						JOINT LeftForeArm
						{
							OFFSET 4.983000 -0.000000 -0.000000
							CHANNELS 3 Zrotation Yrotation Xrotation
							JOINT LeftHand
							{
								OFFSET 3.483560 -0.000000 -0.000000
								CHANNELS 3 Zrotation Yrotation Xrotation
								JOINT LeftFingerBase
								{
									OFFSET 0.000000 0.000000 0.000000
									CHANNELS 3 Zrotation Yrotation Xrotation
									JOINT LeftHandIndex1
									{
										OFFSET 0.715260 -0.000000 -0.000000
										CHANNELS 3 Zrotation Yrotation Xrotation
										End Site
										{
											OFFSET 0.000000 0.000000 0.000000
										}
									}
								}
								JOINT LThumb
								{
									OFFSET 0.000000 0.000000 0.000000
									CHANNELS 3 Zrotation Yrotation Xrotation
									End Site
									{
										OFFSET 0.000000 0.000000 0.000000
									}
								}
							}
						}
					}
				}
				JOINT RightShoulder
				{
					OFFSET 0.000000 0.000000 0.000000
					CHANNELS 3 Zrotation Yrotation Xrotation
					JOINT RightArm
					{
						OFFSET -3.136600 1.374050 -0.404650
						CHANNELS 3 Zrotation Yrotation Xrotation
						JOINT RightForeArm
						{
							OFFSET -5.241900 -0.000000 -0.000000
							CHANNELS 3 Zrotation Yrotation Xrotation
							JOINT RightHand
							{
								OFFSET -3.444170 -0.000000 -0.000000
								CHANNELS 3 Zrotation Yrotation Xrotation
								JOINT RightFingerBase
								{
									OFFSET 0.000000 0.000000 0.000000
									CHANNELS 3 Zrotation Yrotation Xrotation
									JOINT RightHandIndex1
									{
										OFFSET -0.622530 -0.000000 -0.000000
										CHANNELS 3 Zrotation Yrotation Xrotation
										End Site
										{
											OFFSET 0.000000 0.000000 0.000000
										}
									}
								}
								JOINT RThumb
								{
									OFFSET 0.000000 0.000000 0.000000
									CHANNELS 3 Zrotation Yrotation Xrotation
									End Site
									{
										OFFSET 0.000000 0.000000 0.000000
									}
								}
							}
						}
					}
				}
			}
		}
	}
}
MOTION
Frames: 7
Frame Time: 0.033333
0.514628 8.162891 -2.877517 5.684724 -19.127475 24.318494 -15.424223 -0.605536 0.802992 -15.719700 3.197751 -48.347191 5.110504 -6.744738 23.063191 6.586273 11.209285 0.773511 2.119921 -6.770936 -39.717756 12.849896 -11.716008 5.736403 13.673027 -1.096021 -15.836636 7.264050 1.223908 29.651208 6.570972 5.961709 2.144264 2.978495 2.347983 -63.120905 1.289682 0.118660 1.086321 -2.260835 -2.107455 -5.156981 -4.999295 0.328062 -7.646033 5.382596 -0.108103 -10.804750 1.732415 -0.621810 1.100390 -3.078917 2.413872 0.808601 0.181346 15.569090 1.131314 -62.677273 9.403216 2.169567 -6.599382 -20.571890 -5.868277 5.863624 4.981047 -8.220999 0.207078 -0.738734 -0.808230 1.174989 2.168573 3.821841 1.295095 1.288515 -0.411139 7.525384 -12.207114 0.598370 71.541833 18.134691 11.626064 5.004571 51.230421 1.238027 2.575683 11.173699 6.655801 -3.725920 0.041971 -3.635183 -11.078937 3.740215 -0.843344 -0.657336 -2.853880 5.452172 
0.543483 8.236180 -2.537169 7.672281 -15.804350 31.854424 -10.230178 -1.242357 1.154483 -7.903497 7.421733 -41.248267 -2.928161 -0.980530 30.475077 7.371134 10.286526 -3.450996 3.306662 -1.614394 -45.548293 9.575583 -1.092298 -4.170430 3.211645 6.269237 -6.854692 1.571659 -4.769445 27.102347 -7.493129 -6.650295 12.504322 -10.280394 8.842715 -80.330370 4.467584 -4.549965 -5.161851 -6.229419 -10.293242 -6.742298 -8.383642 -2.763206 0.707918 15.065753 -11.663265 -10.033468 -7.536166 6.192518 -2.565416 -0.468202 2.672707 -2.800341 -4.730618 10.492735 0.175542 -61.971878 4.341204 -0.488640 1.859723 -31.114626 0.932120 -4.469793 5.615032 -3.993709 -8.092712 0.582676 0.577191 5.784012 -2.971002 -7.081649 2.923563 1.964628 -4.709917 27.076071 -5.906991 -6.646641 71.153385 18.232760 -3.148407 8.839090 39.918593 3.787166 1.189165 0.956977 -0.166871 0.400675 -8.753641 -4.510230 0.695852 2.766458 3.466155 2.835404 1.738133 -0.559412 
0.521657 8.166446 -3.244667 1.034577 -33.670214 22.212783 -10.464625 5.978348 -2.064809 -5.103428 1.817631 -35.117534 0.254446 3.871155 28.660956 1.317511 10.820095 0.754813 3.660464 0.742008 -43.568154 6.636418 -2.337135 1.635422 3.447279 -5.482491 -16.192474 -2.963967 -4.069943 31.179736 -2.066215 6.997558 11.638094 1.688657 -2.546199 -72.173528 1.300716 -1.317622 1.083167 -4.731734 0.226555 -3.764996 -5.941077 0.214728 -2.747769 2.693262 -5.676462 -8.829725 -4.668108 -2.026164 -4.620762 3.430172 3.453352 5.168864 3.223250 2.898744 5.874700 -57.803960 7.412323 1.672465 -4.595942 -29.549432 1.810716 3.511950 4.235486 -2.813354 0.991405 -1.664163 -1.288840 0.753255 1.573309 -2.416522 -2.045144 -0.221466 5.027759 15.762207 -7.534555 -6.164846 61.988037 6.501254 0.634214 -0.078091 40.428622 -7.068336 -6.769142 11.230930 -1.242192 0.956384 -5.389877 1.426931 -1.289563 -0.279560 -4.841307 3.928143 2.573789 -8.978248 
0.498331 8.238539 -2.548892 7.744435 -26.727806 25.534124 -14.924228 3.523402 5.384751 -10.035704 6.823753 -41.678581 0.080877 1.767409 33.679092 5.765961 8.926331 -1.378286 1.851319 -0.593273 -43.105400 14.876980 -7.324439 -3.210473 3.333328 -0.207176 -22.571422 0.472623 -10.011374 19.128646 1.816727 0.214564 3.758321 -0.912945 2.776938 -71.310159 6.672658 4.917621 5.220260 3.316878 4.093334 -6.793187 -13.005265 5.254435 -0.196320 11.146434 -2.093166 -10.547372 -7.558499 -1.615424 0.516518 7.102301 1.296823 3.322336 -6.334361 6.610151 -1.645167 -62.123211 9.625214 6.859775 -5.361177 -28.415273 4.628091 7.056897 4.936734 1.596174 -5.729824 1.564143 -1.193828 -0.690569 -2.726519 -6.440980 -1.336576 6.430992 2.299222 16.835416 -1.760084 4.563866 55.677502 22.998110 0.273131 4.255014 28.049502 0.134449 0.483013 8.412155 3.358139 6.861361 0.793479 0.170206 4.843686 0.526001 -11.860493 0.822120 4.496214 -4.708776 
0.582409 8.250371 -3.051648 7.247533 -18.885910 32.714893 -10.082253 -0.976540 -1.148048 -4.722932 6.958501 -30.473292 2.044814 4.929737 35.841944 7.159204 9.385438 8.863816 -4.268605 0.399774 -43.881341 11.877800 -3.337046 8.175888 4.402626 5.746907 -15.855748 4.315860 -10.170777 19.931363 -2.004047 -13.173823 14.452556 4.145588 -6.936175 -55.840779 0.316381 6.466315 3.399617 -8.748998 -1.060219 -3.545670 -6.019590 1.973670 1.310119 10.083939 -11.537628 -8.267831 -3.076040 -1.556900 3.168972 -0.492853 -2.647074 1.286588 -1.399269 6.293027 1.671827 -54.982816 1.276927 10.237061 -0.399065 -18.454767 3.486556 12.326994 4.844443 4.448860 -0.494642 2.448600 -4.731630 7.191018 -0.054411 0.137464 -1.828643 -2.355160 -5.246454 22.673331 -9.432881 -4.286357 61.732547 10.541816 10.820084 -1.422740 35.901123 5.207775 -2.636088 8.357819 -4.396826 -4.681571 5.835743 -2.977190 7.494172 -4.942698 2.757523 0.029187 5.286200 0.379436 
0.522023 8.209702 -3.176619 9.785934 -25.145615 27.374365 -9.387083 5.617128 10.121574 -16.717407 6.279120 -42.413061 -7.622482 10.226403 36.395532 2.110656 13.443176 -4.071836 -1.211464 1.440728 -33.033750 13.296688 -10.657634 5.136563 3.218859 -4.430765 -16.167525 2.081559 -9.209094 35.430656 -4.666108 8.967275 7.030730 -7.616480 2.553988 -61.872982 7.978937 -1.659665 0.339088 7.330138 0.261999 -2.846646 -1.044030 1.920602 -1.374002 13.754612 -6.685558 -11.446613 -5.423736 -5.176512 -0.938940 2.493233 -0.052279 -5.081097 -8.534970 7.930700 -0.528902 -58.391291 10.290917 -2.818127 -12.375198 -31.728646 -3.148523 8.670145 7.713881 -0.732866 2.138832 1.399946 -3.405827 -4.644271 -0.730526 1.053834 -1.248109 0.127439 9.116768 17.448768 -5.769694 2.162802 70.944181 16.709210 6.271252 8.940992 42.963963 7.694712 -6.518268 -1.311727 -5.188094 1.610284 -3.774928 1.448353 -1.662099 0.807551 3.815260 -2.541361 -1.629795 -2.765909 
0.493586 8.177938 -2.840908 -0.955896 -27.161264 31.247905 -12.215907 7.578741 5.579491 -5.953487 0.134200 -35.108039 1.209622 8.481094 38.577294 10.058214 13.613903 -11.442134 -5.591236 0.604386 -42.328304 15.109830 -7.504237 13.793084 6.790742 -2.415267 -12.625855 -2.323401 -8.051655 25.689820 -3.827623 0.871727 11.072511 -3.082821 -2.193134 -68.342347 3.936433 1.815737 -3.696419 -9.896784 -13.119970 -0.218918 -7.490296 -0.187764 2.785223 15.693034 -4.441002 -7.122884 1.428773 -10.604158 -2.117907 2.216606 -1.684771 -2.330408 4.228251 6.329318 2.539078 -62.789616 6.071680 9.236828 -1.879035 -23.073019 -0.549301 8.357147 6.828184 0.503476 6.726219 5.770608 4.674612 1.038610 -1.828337 3.670967 3.371700 -4.373232 -0.666876 17.982617 0.114702 -6.073014 60.088862 16.820722 0.806160 -6.630045 36.336348 -6.260828 -1.653080 -0.098356 2.708507 -2.156052 1.435183 1.194232 5.372099 2.397980 7.108620 3.445616 0.495017 10.203119 
